<?xml version="1.0" encoding="UTF-8" standalone="no"?>
<!DOCTYPE svg PUBLIC "-//W3C//DTD SVG 1.1//EN"
 "http://www.w3.org/Graphics/SVG/1.1/DTD/svg11.dtd">
<!-- Generated by graphviz version 2.40.1 (20161225.0304)
 -->
<!-- Title: models_diagram Pages: 1 -->
<svg width="969pt" height="1072pt"
 viewBox="0.00 0.00 969.27 1071.59" xmlns="http://www.w3.org/2000/svg" xmlns:xlink="http://www.w3.org/1999/xlink">
<g id="graph0" class="graph" transform="scale(1 1) rotate(0) translate(36 1035.5851)">
<title>models_diagram</title>
<polygon fill="#ffffff" stroke="transparent" points="-36,36 -36,-1035.5851 933.2719,-1035.5851 933.2719,36 -36,36"/>
<!-- User -->
<g id="node1" class="node">
<title>User</title>
<polygon fill="#add8e6" stroke="transparent" points="486.8479,-176 486.8479,-198 583.8479,-198 583.8479,-176 486.8479,-176"/>
<polygon fill="none" stroke="#000000" points="486.8479,-176 486.8479,-198 583.8479,-198 583.8479,-176 486.8479,-176"/>
<text text-anchor="start" x="525.9099" y="-185" font-family="Times,serif" font-weight="bold" font-size="10.00" fill="#000000">User</text>
<polygon fill="none" stroke="#000000" points="486.8479,-154 486.8479,-176 583.8479,-176 583.8479,-154 486.8479,-154"/>
<text text-anchor="start" x="491.6044" y="-162" font-family="Times,serif" font-size="10.00" fill="#000000">isAdmin: BOOLEAN</text>
<polygon fill="none" stroke="#000000" points="486.8479,-132 486.8479,-154 583.8479,-154 583.8479,-132 486.8479,-132"/>
<text text-anchor="start" x="491.8479" y="-141" font-family="Times,serif" text-decoration="underline" font-size="10.00" fill="#000000">userID</text>
<text text-anchor="start" x="519.0529" y="-141" font-family="Times,serif" font-size="10.00" fill="#000000">: UUID</text>
<polygon fill="none" stroke="#000000" points="486.8479,-110 486.8479,-132 583.8479,-132 583.8479,-110 486.8479,-110"/>
<text text-anchor="start" x="491.8479" y="-118" font-family="Times,serif" font-size="10.00" fill="#000000">password: STRING</text>
<polygon fill="none" stroke="#000000" points="486.8479,-88 486.8479,-110 583.8479,-110 583.8479,-88 486.8479,-88"/>
<text text-anchor="start" x="491.8479" y="-96" font-family="Times,serif" font-size="10.00" fill="#000000">name: STRING</text>
<polygon fill="none" stroke="#000000" points="486.8479,-66 486.8479,-88 583.8479,-88 583.8479,-66 486.8479,-66"/>
<text text-anchor="start" x="491.8479" y="-74" font-family="Times,serif" font-size="10.00" fill="#000000">contact: STRING</text>
<polygon fill="none" stroke="#000000" points="486.8479,-44 486.8479,-66 583.8479,-66 583.8479,-44 486.8479,-44"/>
<text text-anchor="start" x="491.8479" y="-52" font-family="Times,serif" font-size="10.00" fill="#000000">email: STRING</text>
<polygon fill="none" stroke="#000000" points="486.8479,-22 486.8479,-44 583.8479,-44 583.8479,-22 486.8479,-22"/>
<text text-anchor="start" x="491.8479" y="-30" font-family="Times,serif" font-size="10.00" fill="#000000">createdAt: DATE</text>
<polygon fill="none" stroke="#000000" points="486.8479,0 486.8479,-22 583.8479,-22 583.8479,0 486.8479,0"/>
<text text-anchor="start" x="491.8479" y="-8" font-family="Times,serif" font-size="10.00" fill="#000000">updatedAt: DATE</text>
</g>
<!-- Restraunt -->
<g id="node2" class="node">
<title>Restraunt</title>
<polygon fill="#add8e6" stroke="transparent" points="218.1413,-651.8058 218.1413,-673.8058 303.1413,-673.8058 303.1413,-651.8058 218.1413,-651.8058"/>
<polygon fill="none" stroke="#000000" points="218.1413,-651.8058 218.1413,-673.8058 303.1413,-673.8058 303.1413,-651.8058 218.1413,-651.8058"/>
<text text-anchor="start" x="241.4798" y="-660.8058" font-family="Times,serif" font-weight="bold" font-size="10.00" fill="#000000">Restraunt</text>
<polygon fill="none" stroke="#000000" points="218.1413,-629.8058 218.1413,-651.8058 303.1413,-651.8058 303.1413,-629.8058 218.1413,-629.8058"/>
<text text-anchor="start" x="222.7433" y="-638.8058" font-family="Times,serif" text-decoration="underline" font-size="10.00" fill="#000000">restrauntID</text>
<text text-anchor="start" x="268.2743" y="-638.8058" font-family="Times,serif" font-size="10.00" fill="#000000">: UUID</text>
<polygon fill="none" stroke="#000000" points="218.1413,-607.8058 218.1413,-629.8058 303.1413,-629.8058 303.1413,-607.8058 218.1413,-607.8058"/>
<text text-anchor="start" x="223.1413" y="-615.8058" font-family="Times,serif" font-size="10.00" fill="#000000">name: STRING</text>
<polygon fill="none" stroke="#000000" points="218.1413,-585.8058 218.1413,-607.8058 303.1413,-607.8058 303.1413,-585.8058 218.1413,-585.8058"/>
<text text-anchor="start" x="223.1413" y="-593.8058" font-family="Times,serif" font-size="10.00" fill="#000000">zipcode: STRING</text>
<polygon fill="none" stroke="#000000" points="218.1413,-563.8058 218.1413,-585.8058 303.1413,-585.8058 303.1413,-563.8058 218.1413,-563.8058"/>
<text text-anchor="start" x="223.1413" y="-571.8058" font-family="Times,serif" font-size="10.00" fill="#000000">address: STRING</text>
<polygon fill="none" stroke="#000000" points="218.1413,-541.8058 218.1413,-563.8058 303.1413,-563.8058 303.1413,-541.8058 218.1413,-541.8058"/>
<text text-anchor="start" x="223.1413" y="-549.8058" font-family="Times,serif" font-size="10.00" fill="#000000">rating: NUMBER</text>
<polygon fill="none" stroke="#000000" points="218.1413,-519.8058 218.1413,-541.8058 303.1413,-541.8058 303.1413,-519.8058 218.1413,-519.8058"/>
<text text-anchor="start" x="223.1413" y="-527.8058" font-family="Times,serif" font-size="10.00" fill="#000000">createdAt: DATE</text>
<polygon fill="none" stroke="#000000" points="218.1413,-497.8058 218.1413,-519.8058 303.1413,-519.8058 303.1413,-497.8058 218.1413,-497.8058"/>
<text text-anchor="start" x="223.1413" y="-505.8058" font-family="Times,serif" font-size="10.00" fill="#000000">updatedAt: DATE</text>
<polygon fill="none" stroke="#000000" points="218.1413,-475.8058 218.1413,-497.8058 303.1413,-497.8058 303.1413,-475.8058 218.1413,-475.8058"/>
<text text-anchor="start" x="223.1413" y="-484.8058" font-family="Times,serif" font-style="italic" text-decoration="underline" font-size="10.00" fill="#000000">cityID</text>
<text text-anchor="start" x="248.6863" y="-484.8058" font-family="Times,serif" font-size="10.00" fill="#000000">: UUID</text>
</g>
<!-- City -->
<g id="node3" class="node">
<title>City</title>
<polygon fill="#add8e6" stroke="transparent" points="39.076,-402.6759 39.076,-424.6759 132.076,-424.6759 132.076,-402.6759 39.076,-402.6759"/>
<polygon fill="none" stroke="#000000" points="39.076,-402.6759 39.076,-424.6759 132.076,-424.6759 132.076,-402.6759 39.076,-402.6759"/>
<text text-anchor="start" x="76.9625" y="-411.6759" font-family="Times,serif" font-weight="bold" font-size="10.00" fill="#000000">City</text>
<polygon fill="none" stroke="#000000" points="39.076,-380.6759 39.076,-402.6759 132.076,-402.6759 132.076,-380.6759 39.076,-380.6759"/>
<text text-anchor="start" x="44.076" y="-389.6759" font-family="Times,serif" text-decoration="underline" font-size="10.00" fill="#000000">cityID</text>
<text text-anchor="start" x="69.621" y="-389.6759" font-family="Times,serif" font-size="10.00" fill="#000000">: UUID</text>
<polygon fill="none" stroke="#000000" points="39.076,-358.6759 39.076,-380.6759 132.076,-380.6759 132.076,-358.6759 39.076,-358.6759"/>
<text text-anchor="start" x="44.076" y="-366.6759" font-family="Times,serif" font-size="10.00" fill="#000000">cityName: STRING</text>
<polygon fill="none" stroke="#000000" points="39.076,-336.6759 39.076,-358.6759 132.076,-358.6759 132.076,-336.6759 39.076,-336.6759"/>
<text text-anchor="start" x="43.784" y="-344.6759" font-family="Times,serif" font-size="10.00" fill="#000000">stateName: STRING</text>
<polygon fill="none" stroke="#000000" points="39.076,-314.6759 39.076,-336.6759 132.076,-336.6759 132.076,-314.6759 39.076,-314.6759"/>
<text text-anchor="start" x="44.076" y="-322.6759" font-family="Times,serif" font-size="10.00" fill="#000000">createdAt: DATE</text>
<polygon fill="none" stroke="#000000" points="39.076,-292.6759 39.076,-314.6759 132.076,-314.6759 132.076,-292.6759 39.076,-292.6759"/>
<text text-anchor="start" x="44.076" y="-300.6759" font-family="Times,serif" font-size="10.00" fill="#000000">updatedAt: DATE</text>
</g>
<!-- Restraunt&#45;&gt;City -->
<g id="edge1" class="edge">
<title>Restraunt&#45;&gt;City</title>
<path fill="none" stroke="#000000" stroke-width=".75" d="M213.5382,-517.2711C188.2829,-486.0917 157.1609,-447.6696 131.8753,-416.4527"/>
<polygon fill="#000000" stroke="#000000" stroke-width=".75" points="213.7628,-517.5484 215.4413,-523.9103 215.6511,-519.8796 217.5394,-522.2108 217.5394,-522.2108 217.5394,-522.2108 215.6511,-519.8796 219.6375,-520.5114 213.7628,-517.5484 213.7628,-517.5484"/>
</g>
<!-- Address -->
<g id="node4" class="node">
<title>Address</title>
<polygon fill="#add8e6" stroke="transparent" points="478.8479,-695.3518 478.8479,-717.3518 590.8479,-717.3518 590.8479,-695.3518 478.8479,-695.3518"/>
<polygon fill="none" stroke="#000000" points="478.8479,-695.3518 478.8479,-717.3518 590.8479,-717.3518 590.8479,-695.3518 478.8479,-695.3518"/>
<text text-anchor="start" x="518.4654" y="-704.3518" font-family="Times,serif" font-weight="bold" font-size="10.00" fill="#000000">Address</text>
<polygon fill="none" stroke="#000000" points="478.8479,-673.3518 478.8479,-695.3518 590.8479,-695.3518 590.8479,-673.3518 478.8479,-673.3518"/>
<text text-anchor="start" x="483.8479" y="-682.3518" font-family="Times,serif" text-decoration="underline" font-size="10.00" fill="#000000">addressID</text>
<text text-anchor="start" x="524.3809" y="-682.3518" font-family="Times,serif" font-size="10.00" fill="#000000">: UUID</text>
<polygon fill="none" stroke="#000000" points="478.8479,-651.3518 478.8479,-673.3518 590.8479,-673.3518 590.8479,-651.3518 478.8479,-651.3518"/>
<text text-anchor="start" x="483.8479" y="-660.3518" font-family="Times,serif" font-style="italic" text-decoration="underline" font-size="10.00" fill="#000000">userID</text>
<text text-anchor="start" x="511.0529" y="-660.3518" font-family="Times,serif" font-size="10.00" fill="#000000">: UUID</text>
<polygon fill="none" stroke="#000000" points="478.8479,-629.3518 478.8479,-651.3518 590.8479,-651.3518 590.8479,-629.3518 478.8479,-629.3518"/>
<text text-anchor="start" x="483.8479" y="-638.3518" font-family="Times,serif" font-style="italic" text-decoration="underline" font-size="10.00" fill="#000000">cityID</text>
<text text-anchor="start" x="509.3929" y="-638.3518" font-family="Times,serif" font-size="10.00" fill="#000000">: UUID</text>
<polygon fill="none" stroke="#000000" points="478.8479,-607.3518 478.8479,-629.3518 590.8479,-629.3518 590.8479,-607.3518 478.8479,-607.3518"/>
<text text-anchor="start" x="483.8479" y="-615.3518" font-family="Times,serif" font-size="10.00" fill="#000000">street: STRING</text>
<polygon fill="none" stroke="#000000" points="478.8479,-585.3518 478.8479,-607.3518 590.8479,-607.3518 590.8479,-585.3518 478.8479,-585.3518"/>
<text text-anchor="start" x="483.6164" y="-593.3518" font-family="Times,serif" font-size="10.00" fill="#000000">currentAddress: STRING</text>
<polygon fill="none" stroke="#000000" points="478.8479,-563.3518 478.8479,-585.3518 590.8479,-585.3518 590.8479,-563.3518 478.8479,-563.3518"/>
<text text-anchor="start" x="483.8479" y="-571.3518" font-family="Times,serif" font-size="10.00" fill="#000000">zipcode: NUMBER</text>
<polygon fill="none" stroke="#000000" points="478.8479,-541.3518 478.8479,-563.3518 590.8479,-563.3518 590.8479,-541.3518 478.8479,-541.3518"/>
<text text-anchor="start" x="483.8479" y="-549.3518" font-family="Times,serif" font-size="10.00" fill="#000000">createdAt: DATE</text>
<polygon fill="none" stroke="#000000" points="478.8479,-519.3518 478.8479,-541.3518 590.8479,-541.3518 590.8479,-519.3518 478.8479,-519.3518"/>
<text text-anchor="start" x="483.8479" y="-527.3518" font-family="Times,serif" font-size="10.00" fill="#000000">updatedAt: DATE</text>
</g>
<!-- City&#45;&gt;Address -->
<g id="edge2" class="edge">
<title>City&#45;&gt;Address</title>
<path fill="none" stroke="#000000" stroke-width=".75" d="M137.1778,-388.7569C222.3865,-437.9522 390.8337,-535.2052 478.6371,-585.8985"/>
<polygon fill="#000000" stroke="#000000" stroke-width=".75" points="137.1328,-388.731 133.2867,-383.3926 134.5348,-387.2309 131.9367,-385.7309 131.9367,-385.7309 131.9367,-385.7309 134.5348,-387.2309 130.5867,-388.0692 137.1328,-388.731 137.1328,-388.731"/>
</g>
<!-- Address&#45;&gt;User -->
<g id="edge3" class="edge">
<title>Address&#45;&gt;User</title>
<path fill="none" stroke="#000000" stroke-width=".75" d="M534.8479,-513.1367C534.8479,-421.1381 534.8479,-288.5065 534.8479,-198.3042"/>
<polygon fill="#000000" stroke="#000000" stroke-width=".75" points="534.848,-513.1368 532.1479,-519.1368 534.848,-516.1368 534.8479,-519.1368 534.8479,-519.1368 534.8479,-519.1368 534.848,-516.1368 537.5479,-519.1369 534.848,-513.1368 534.848,-513.1368"/>
</g>
<!-- Order -->
<g id="node5" class="node">
<title>Order</title>
<polygon fill="#add8e6" stroke="transparent" points="636.7719,-457.6759 636.7719,-479.6759 732.7719,-479.6759 732.7719,-457.6759 636.7719,-457.6759"/>
<polygon fill="none" stroke="#000000" points="636.7719,-457.6759 636.7719,-479.6759 732.7719,-479.6759 732.7719,-457.6759 636.7719,-457.6759"/>
<text text-anchor="start" x="673.1139" y="-466.6759" font-family="Times,serif" font-weight="bold" font-size="10.00" fill="#000000">Order</text>
<polygon fill="none" stroke="#000000" points="636.7719,-435.6759 636.7719,-457.6759 732.7719,-457.6759 732.7719,-435.6759 636.7719,-435.6759"/>
<text text-anchor="start" x="641.7719" y="-444.6759" font-family="Times,serif" text-decoration="underline" font-size="10.00" fill="#000000">orderID</text>
<text text-anchor="start" x="673.4169" y="-444.6759" font-family="Times,serif" font-size="10.00" fill="#000000">: UUID</text>
<polygon fill="none" stroke="#000000" points="636.7719,-413.6759 636.7719,-435.6759 732.7719,-435.6759 732.7719,-413.6759 636.7719,-413.6759"/>
<text text-anchor="start" x="641.3094" y="-421.6759" font-family="Times,serif" font-size="10.00" fill="#000000">orderStatus: STRING</text>
<polygon fill="none" stroke="#000000" points="636.7719,-391.6759 636.7719,-413.6759 732.7719,-413.6759 732.7719,-391.6759 636.7719,-391.6759"/>
<text text-anchor="start" x="641.7719" y="-399.6759" font-family="Times,serif" font-size="10.00" fill="#000000">orderTime: TIME</text>
<polygon fill="none" stroke="#000000" points="636.7719,-369.6759 636.7719,-391.6759 732.7719,-391.6759 732.7719,-369.6759 636.7719,-369.6759"/>
<text text-anchor="start" x="641.7719" y="-377.6759" font-family="Times,serif" font-size="10.00" fill="#000000">deliveryTime: TIME</text>
<polygon fill="none" stroke="#000000" points="636.7719,-347.6759 636.7719,-369.6759 732.7719,-369.6759 732.7719,-347.6759 636.7719,-347.6759"/>
<text text-anchor="start" x="641.5849" y="-355.6759" font-family="Times,serif" font-size="10.00" fill="#000000">totalPrice: NUMBER</text>
<polygon fill="none" stroke="#000000" points="636.7719,-325.6759 636.7719,-347.6759 732.7719,-347.6759 732.7719,-325.6759 636.7719,-325.6759"/>
<text text-anchor="start" x="641.7719" y="-334.6759" font-family="Times,serif" font-style="italic" text-decoration="underline" font-size="10.00" fill="#000000">userID</text>
<text text-anchor="start" x="668.9769" y="-334.6759" font-family="Times,serif" font-size="10.00" fill="#000000">: UUID</text>
<polygon fill="none" stroke="#000000" points="636.7719,-303.6759 636.7719,-325.6759 732.7719,-325.6759 732.7719,-303.6759 636.7719,-303.6759"/>
<text text-anchor="start" x="641.7719" y="-312.6759" font-family="Times,serif" font-style="italic" text-decoration="underline" font-size="10.00" fill="#000000">restrauntID</text>
<text text-anchor="start" x="687.3029" y="-312.6759" font-family="Times,serif" font-size="10.00" fill="#000000">: UUID</text>
<polygon fill="none" stroke="#000000" points="636.7719,-281.6759 636.7719,-303.6759 732.7719,-303.6759 732.7719,-281.6759 636.7719,-281.6759"/>
<text text-anchor="start" x="641.7719" y="-290.6759" font-family="Times,serif" font-style="italic" text-decoration="underline" font-size="10.00" fill="#000000">addressID</text>
<text text-anchor="start" x="682.3049" y="-290.6759" font-family="Times,serif" font-size="10.00" fill="#000000">: UUID</text>
<polygon fill="none" stroke="#000000" points="636.7719,-259.6759 636.7719,-281.6759 732.7719,-281.6759 732.7719,-259.6759 636.7719,-259.6759"/>
<text text-anchor="start" x="641.7719" y="-267.6759" font-family="Times,serif" font-size="10.00" fill="#000000">createdAt: DATE</text>
<polygon fill="none" stroke="#000000" points="636.7719,-237.6759 636.7719,-259.6759 732.7719,-259.6759 732.7719,-237.6759 636.7719,-237.6759"/>
<text text-anchor="start" x="641.7719" y="-245.6759" font-family="Times,serif" font-size="10.00" fill="#000000">updatedAt: DATE</text>
</g>
<!-- Address&#45;&gt;Order -->
<g id="edge4" class="edge">
<title>Address&#45;&gt;Order</title>
<path fill="none" stroke="#000000" stroke-width=".75" d="M593.8999,-516.0707C608.0784,-491.5128 623.053,-465.5761 636.6659,-441.9978"/>
<polygon fill="#000000" stroke="#000000" stroke-width=".75" points="593.8873,-516.0927 588.549,-519.9388 592.3873,-518.6907 590.8873,-521.2888 590.8873,-521.2888 590.8873,-521.2888 592.3873,-518.6907 593.2255,-522.6388 593.8873,-516.0927 593.8873,-516.0927"/>
</g>
<!-- Order&#45;&gt;User -->
<g id="edge5" class="edge">
<title>Order&#45;&gt;User</title>
<path fill="none" stroke="#000000" stroke-width=".75" d="M633.6991,-270.2154C617.4314,-242.0387 599.4873,-210.9588 583.403,-183.0999"/>
<polygon fill="#000000" stroke="#000000" stroke-width=".75" points="633.7163,-270.2452 634.3781,-276.7914 635.2163,-272.8433 636.7164,-275.4413 636.7164,-275.4413 636.7164,-275.4413 635.2163,-272.8433 639.0546,-274.0913 633.7163,-270.2452 633.7163,-270.2452"/>
</g>
<!-- Order&#45;&gt;Restraunt -->
<g id="edge6" class="edge">
<title>Order&#45;&gt;Restraunt</title>
<path fill="none" stroke="#000000" stroke-width=".75" d="M630.9621,-386.0642C545.4966,-429.5647 380.4578,-513.5667 302.6712,-553.1588"/>
<polygon fill="#000000" stroke="#000000" stroke-width=".75" points="631.1275,-385.98 637.6995,-385.6646 633.8012,-384.6192 636.4748,-383.2583 636.4748,-383.2583 636.4748,-383.2583 633.8012,-384.6192 635.25,-380.8521 631.1275,-385.98 631.1275,-385.98"/>
</g>
<!-- ItemsOrdered -->
<g id="node6" class="node">
<title>ItemsOrdered</title>
<polygon fill="#add8e6" stroke="transparent" points="792.7719,-424.6759 792.7719,-446.6759 897.7719,-446.6759 897.7719,-424.6759 792.7719,-424.6759"/>
<polygon fill="none" stroke="#000000" points="792.7719,-424.6759 792.7719,-446.6759 897.7719,-446.6759 897.7719,-424.6759 792.7719,-424.6759"/>
<text text-anchor="start" x="817.7869" y="-433.6759" font-family="Times,serif" font-weight="bold" font-size="10.00" fill="#000000">ItemsOrdered</text>
<polygon fill="none" stroke="#000000" points="792.7719,-402.6759 792.7719,-424.6759 897.7719,-424.6759 897.7719,-402.6759 792.7719,-402.6759"/>
<text text-anchor="start" x="797.6554" y="-411.6759" font-family="Times,serif" text-decoration="underline" font-size="10.00" fill="#000000">itemsOrderedID</text>
<text text-anchor="start" x="862.6234" y="-411.6759" font-family="Times,serif" font-size="10.00" fill="#000000">: UUID</text>
<polygon fill="none" stroke="#000000" points="792.7719,-380.6759 792.7719,-402.6759 897.7719,-402.6759 897.7719,-380.6759 792.7719,-380.6759"/>
<text text-anchor="start" x="797.7719" y="-389.6759" font-family="Times,serif" font-style="italic" text-decoration="underline" font-size="10.00" fill="#000000">menuID</text>
<text text-anchor="start" x="830.5379" y="-389.6759" font-family="Times,serif" font-size="10.00" fill="#000000">: UUID</text>
<polygon fill="none" stroke="#000000" points="792.7719,-358.6759 792.7719,-380.6759 897.7719,-380.6759 897.7719,-358.6759 792.7719,-358.6759"/>
<text text-anchor="start" x="797.7719" y="-366.6759" font-family="Times,serif" font-size="10.00" fill="#000000">price: NUMBER</text>
<polygon fill="none" stroke="#000000" points="792.7719,-336.6759 792.7719,-358.6759 897.7719,-358.6759 897.7719,-336.6759 792.7719,-336.6759"/>
<text text-anchor="start" x="797.7719" y="-344.6759" font-family="Times,serif" font-size="10.00" fill="#000000">quantity: NUMBER</text>
<polygon fill="none" stroke="#000000" points="792.7719,-314.6759 792.7719,-336.6759 897.7719,-336.6759 897.7719,-314.6759 792.7719,-314.6759"/>
<text text-anchor="start" x="797.7719" y="-322.6759" font-family="Times,serif" font-size="10.00" fill="#000000">createdAt: DATE</text>
<polygon fill="none" stroke="#000000" points="792.7719,-292.6759 792.7719,-314.6759 897.7719,-314.6759 897.7719,-292.6759 792.7719,-292.6759"/>
<text text-anchor="start" x="797.7719" y="-300.6759" font-family="Times,serif" font-size="10.00" fill="#000000">updatedAt: DATE</text>
<polygon fill="none" stroke="#000000" points="792.7719,-270.6759 792.7719,-292.6759 897.7719,-292.6759 897.7719,-270.6759 792.7719,-270.6759"/>
<text text-anchor="start" x="797.7719" y="-279.6759" font-family="Times,serif" font-style="italic" text-decoration="underline" font-size="10.00" fill="#000000">orderID</text>
<text text-anchor="start" x="829.4169" y="-279.6759" font-family="Times,serif" font-size="10.00" fill="#000000">: UUID</text>
</g>
<!-- ItemsOrdered&#45;&gt;Order -->
<g id="edge7" class="edge">
<title>ItemsOrdered&#45;&gt;Order</title>
<path fill="none" stroke="#000000" stroke-width=".75" d="M785.6193,-358.6759C768.2769,-358.6759 749.5294,-358.6759 732.9577,-358.6759"/>
<polygon fill="#000000" stroke="#000000" stroke-width=".75" points="785.9385,-358.676 791.9385,-361.3759 788.9385,-358.676 791.9385,-358.6759 791.9385,-358.6759 791.9385,-358.6759 788.9385,-358.676 791.9384,-355.9759 785.9385,-358.676 785.9385,-358.676"/>
</g>
<!-- Menu -->
<g id="node7" class="node">
<title>Menu</title>
<polygon fill="#add8e6" stroke="transparent" points="148.9562,-846.3703 148.9562,-868.3703 243.9562,-868.3703 243.9562,-846.3703 148.9562,-846.3703"/>
<polygon fill="none" stroke="#000000" points="148.9562,-846.3703 148.9562,-868.3703 243.9562,-868.3703 243.9562,-846.3703 148.9562,-846.3703"/>
<text text-anchor="start" x="184.7922" y="-855.3703" font-family="Times,serif" font-weight="bold" font-size="10.00" fill="#000000">Menu</text>
<polygon fill="none" stroke="#000000" points="148.9562,-824.3703 148.9562,-846.3703 243.9562,-846.3703 243.9562,-824.3703 148.9562,-824.3703"/>
<text text-anchor="start" x="153.9562" y="-833.3703" font-family="Times,serif" text-decoration="underline" font-size="10.00" fill="#000000">menuID</text>
<text text-anchor="start" x="186.7222" y="-833.3703" font-family="Times,serif" font-size="10.00" fill="#000000">: UUID</text>
<polygon fill="none" stroke="#000000" points="148.9562,-802.3703 148.9562,-824.3703 243.9562,-824.3703 243.9562,-802.3703 148.9562,-802.3703"/>
<text text-anchor="start" x="153.5482" y="-810.3703" font-family="Times,serif" font-size="10.00" fill="#000000">description: STRING</text>
<polygon fill="none" stroke="#000000" points="148.9562,-780.3703 148.9562,-802.3703 243.9562,-802.3703 243.9562,-780.3703 148.9562,-780.3703"/>
<text text-anchor="start" x="153.9562" y="-789.3703" font-family="Times,serif" font-style="italic" text-decoration="underline" font-size="10.00" fill="#000000">restrauntID</text>
<text text-anchor="start" x="199.4872" y="-789.3703" font-family="Times,serif" font-size="10.00" fill="#000000">: UUID</text>
<polygon fill="none" stroke="#000000" points="148.9562,-758.3703 148.9562,-780.3703 243.9562,-780.3703 243.9562,-758.3703 148.9562,-758.3703"/>
<text text-anchor="start" x="153.9562" y="-766.3703" font-family="Times,serif" font-size="10.00" fill="#000000">price: NUMBER</text>
<polygon fill="none" stroke="#000000" points="148.9562,-736.3703 148.9562,-758.3703 243.9562,-758.3703 243.9562,-736.3703 148.9562,-736.3703"/>
<text text-anchor="start" x="153.9562" y="-744.3703" font-family="Times,serif" font-size="10.00" fill="#000000">createdAt: DATE</text>
<polygon fill="none" stroke="#000000" points="148.9562,-714.3703 148.9562,-736.3703 243.9562,-736.3703 243.9562,-714.3703 148.9562,-714.3703"/>
<text text-anchor="start" x="153.9562" y="-722.3703" font-family="Times,serif" font-size="10.00" fill="#000000">updatedAt: DATE</text>
</g>
<!-- Menu&#45;&gt;Restraunt -->
<g id="edge8" class="edge">
<title>Menu&#45;&gt;Restraunt</title>
<path fill="none" stroke="#000000" stroke-width=".75" d="M220.5841,-708.2744C223.9086,-697.0573 227.3462,-685.4584 230.7434,-673.9963"/>
<polygon fill="#000000" stroke="#000000" stroke-width=".75" points="220.5617,-708.3501 216.268,-713.3355 219.7092,-711.2264 218.8567,-714.1027 218.8567,-714.1027 218.8567,-714.1027 219.7092,-711.2264 221.4454,-714.87 220.5617,-708.3501 220.5617,-708.3501"/>
</g>
<!-- FoodCategory -->
<g id="node8" class="node">
<title>FoodCategory</title>
<polygon fill="#add8e6" stroke="transparent" points="0,-977.5851 0,-999.5851 106,-999.5851 106,-977.5851 0,-977.5851"/>
<polygon fill="none" stroke="#000000" points="0,-977.5851 0,-999.5851 106,-999.5851 106,-977.5851 0,-977.5851"/>
<text text-anchor="start" x="24.393" y="-986.5851" font-family="Times,serif" font-weight="bold" font-size="10.00" fill="#000000">FoodCategory</text>
<polygon fill="none" stroke="#000000" points="0,-955.5851 0,-977.5851 106,-977.5851 106,-955.5851 0,-955.5851"/>
<text text-anchor="start" x="5" y="-964.5851" font-family="Times,serif" text-decoration="underline" font-size="10.00" fill="#000000">foodCategoryID</text>
<text text-anchor="start" x="70.532" y="-964.5851" font-family="Times,serif" font-size="10.00" fill="#000000">: UUID</text>
<polygon fill="none" stroke="#000000" points="0,-933.5851 0,-955.5851 106,-955.5851 106,-933.5851 0,-933.5851"/>
<text text-anchor="start" x="4.8165" y="-941.5851" font-family="Times,serif" font-size="10.00" fill="#000000">foodCategory: STRING</text>
<polygon fill="none" stroke="#000000" points="0,-911.5851 0,-933.5851 106,-933.5851 106,-911.5851 0,-911.5851"/>
<text text-anchor="start" x="5" y="-919.5851" font-family="Times,serif" font-size="10.00" fill="#000000">createdAt: DATE</text>
<polygon fill="none" stroke="#000000" points="0,-889.5851 0,-911.5851 106,-911.5851 106,-889.5851 0,-889.5851"/>
<text text-anchor="start" x="5" y="-897.5851" font-family="Times,serif" font-size="10.00" fill="#000000">updatedAt: DATE</text>
<polygon fill="none" stroke="#000000" points="0,-867.5851 0,-889.5851 106,-889.5851 106,-867.5851 0,-867.5851"/>
<text text-anchor="start" x="5" y="-876.5851" font-family="Times,serif" font-style="italic" text-decoration="underline" font-size="10.00" fill="#000000">menuID</text>
<text text-anchor="start" x="37.766" y="-876.5851" font-family="Times,serif" font-size="10.00" fill="#000000">: UUID</text>
</g>
<!-- FoodCategory&#45;&gt;Menu -->
<g id="edge9" class="edge">
<title>FoodCategory&#45;&gt;Menu</title>
<path fill="none" stroke="#000000" stroke-width=".75" d="M110.7959,-876.0889C123.2637,-863.6858 136.3084,-850.7087 148.3352,-838.7443"/>
<polygon fill="#000000" stroke="#000000" stroke-width=".75" points="110.4853,-876.3979 104.3274,-878.7154 108.3585,-878.5137 106.2316,-880.6295 106.2316,-880.6295 106.2316,-880.6295 108.3585,-878.5137 108.1358,-882.5437 110.4853,-876.3979 110.4853,-876.3979"/>
</g>
<!-- Payment -->
<g id="node9" class="node">
<title>Payment</title>
<polygon fill="#add8e6" stroke="transparent" points="168,-165 168,-187 302,-187 302,-165 168,-165"/>
<polygon fill="none" stroke="#000000" points="168,-165 168,-187 302,-187 302,-165 168,-165"/>
<text text-anchor="start" x="217.5025" y="-174" font-family="Times,serif" font-weight="bold" font-size="10.00" fill="#000000">Payment</text>
<polygon fill="none" stroke="#000000" points="168,-143 168,-165 302,-165 302,-143 168,-143"/>
<text text-anchor="start" x="173" y="-152" font-family="Times,serif" text-decoration="underline" font-size="10.00" fill="#000000">paymentID</text>
<text text-anchor="start" x="217.984" y="-152" font-family="Times,serif" font-size="10.00" fill="#000000">: UUID</text>
<polygon fill="none" stroke="#000000" points="168,-121 168,-143 302,-143 302,-121 168,-121"/>
<text text-anchor="start" x="173" y="-129" font-family="Times,serif" font-size="10.00" fill="#000000">paymentStatus: STRING</text>
<polygon fill="none" stroke="#000000" points="168,-99 168,-121 302,-121 302,-99 168,-99"/>
<text text-anchor="start" x="172.648" y="-107" font-family="Times,serif" font-size="10.00" fill="#000000">amountToBePayed: NUMBER</text>
<polygon fill="none" stroke="#000000" points="168,-77 168,-99 302,-99 302,-77 168,-77"/>
<text text-anchor="start" x="173" y="-86" font-family="Times,serif" font-style="italic" text-decoration="underline" font-size="10.00" fill="#000000">userID</text>
<text text-anchor="start" x="200.205" y="-86" font-family="Times,serif" font-size="10.00" fill="#000000">: UUID</text>
<polygon fill="none" stroke="#000000" points="168,-55 168,-77 302,-77 302,-55 168,-55"/>
<text text-anchor="start" x="173" y="-64" font-family="Times,serif" font-style="italic" text-decoration="underline" font-size="10.00" fill="#000000">orderID</text>
<text text-anchor="start" x="204.645" y="-64" font-family="Times,serif" font-size="10.00" fill="#000000">: UUID</text>
<polygon fill="none" stroke="#000000" points="168,-33 168,-55 302,-55 302,-33 168,-33"/>
<text text-anchor="start" x="173" y="-41" font-family="Times,serif" font-size="10.00" fill="#000000">createdAt: DATE</text>
<polygon fill="none" stroke="#000000" points="168,-11 168,-33 302,-33 302,-11 168,-11"/>
<text text-anchor="start" x="173" y="-19" font-family="Times,serif" font-size="10.00" fill="#000000">updatedAt: DATE</text>
</g>
<!-- Payment&#45;&gt;User -->
<g id="edge10" class="edge">
<title>Payment&#45;&gt;User</title>
<path fill="none" stroke="#000000" stroke-width=".75" d="M308.5897,-99C363.8103,-99 437.8739,-99 485.9748,-99"/>
<polygon fill="#000000" stroke="#000000" stroke-width=".75" points="308.2917,-99.0001 302.2918,-96.3 305.2917,-99 302.2917,-99 302.2917,-99 302.2917,-99 305.2917,-99 302.2917,-101.7 308.2917,-99.0001 308.2917,-99.0001"/>
</g>
<!-- Payment&#45;&gt;Order -->
<g id="edge11" class="edge">
<title>Payment&#45;&gt;Order</title>
<path fill="none" stroke="#000000" stroke-width=".75" d="M307.7922,-141.0266C400.4127,-194.5011 557.8085,-285.3736 636.6975,-330.9202"/>
<polygon fill="#000000" stroke="#000000" stroke-width=".75" points="307.5316,-140.8762 303.6854,-135.5378 304.9335,-139.3761 302.3354,-137.8761 302.3354,-137.8761 302.3354,-137.8761 304.9335,-139.3761 300.9854,-140.2144 307.5316,-140.8762 307.5316,-140.8762"/>
</g>
</g>
</svg>
