<?xml version="1.0" encoding="UTF-8" standalone="no"?>
<!DOCTYPE svg PUBLIC "-//W3C//DTD SVG 1.1//EN"
 "http://www.w3.org/Graphics/SVG/1.1/DTD/svg11.dtd">
<!-- Generated by graphviz version 2.40.1 (20161225.0304)
 -->
<!-- Title: models_diagram Pages: 1 -->
<svg width="1155pt" height="811pt"
 viewBox="0.00 0.00 1155.11 811.35" xmlns="http://www.w3.org/2000/svg" xmlns:xlink="http://www.w3.org/1999/xlink">
<g id="graph0" class="graph" transform="scale(1 1) rotate(0) translate(36 775.3518)">
<title>models_diagram</title>
<polygon fill="#ffffff" stroke="transparent" points="-36,36 -36,-775.3518 1119.1055,-775.3518 1119.1055,36 -36,36"/>
<!-- User -->
<g id="node1" class="node">
<title>User</title>
<polygon fill="#add8e6" stroke="transparent" points="175.924,-176 175.924,-198 258.924,-198 258.924,-176 175.924,-176"/>
<polygon fill="none" stroke="#000000" points="175.924,-176 175.924,-198 258.924,-198 258.924,-176 175.924,-176"/>
<text text-anchor="start" x="207.986" y="-185" font-family="Times,serif" font-weight="bold" font-size="10.00" fill="#000000">User</text>
<polygon fill="none" stroke="#000000" points="175.924,-154 175.924,-176 258.924,-176 258.924,-154 175.924,-154"/>
<text text-anchor="start" x="180.924" y="-163" font-family="Times,serif" text-decoration="underline" font-size="10.00" fill="#000000">userID</text>
<text text-anchor="start" x="208.129" y="-163" font-family="Times,serif" font-size="10.00" fill="#000000">: UUID</text>
<polygon fill="none" stroke="#000000" points="175.924,-132 175.924,-154 258.924,-154 258.924,-132 175.924,-132"/>
<text text-anchor="start" x="180.924" y="-140" font-family="Times,serif" font-size="10.00" fill="#000000">name: STRING</text>
<polygon fill="none" stroke="#000000" points="175.924,-110 175.924,-132 258.924,-132 258.924,-110 175.924,-110"/>
<text text-anchor="start" x="180.924" y="-118" font-family="Times,serif" font-size="10.00" fill="#000000">contact: STRING</text>
<polygon fill="none" stroke="#000000" points="175.924,-88 175.924,-110 258.924,-110 258.924,-88 175.924,-88"/>
<text text-anchor="start" x="180.924" y="-96" font-family="Times,serif" font-size="10.00" fill="#000000">email: STRING</text>
<polygon fill="none" stroke="#000000" points="175.924,-66 175.924,-88 258.924,-88 258.924,-66 175.924,-66"/>
<text text-anchor="start" x="180.924" y="-74" font-family="Times,serif" font-size="10.00" fill="#000000">createdAt: DATE</text>
<polygon fill="none" stroke="#000000" points="175.924,-44 175.924,-66 258.924,-66 258.924,-44 175.924,-44"/>
<text text-anchor="start" x="180.629" y="-52" font-family="Times,serif" font-size="10.00" fill="#000000">updatedAt: DATE</text>
</g>
<!-- Address -->
<g id="node2" class="node">
<title>Address</title>
<polygon fill="#add8e6" stroke="transparent" points="160.924,-717.3518 160.924,-739.3518 272.924,-739.3518 272.924,-717.3518 160.924,-717.3518"/>
<polygon fill="none" stroke="#000000" points="160.924,-717.3518 160.924,-739.3518 272.924,-739.3518 272.924,-717.3518 160.924,-717.3518"/>
<text text-anchor="start" x="200.5415" y="-726.3518" font-family="Times,serif" font-weight="bold" font-size="10.00" fill="#000000">Address</text>
<polygon fill="none" stroke="#000000" points="160.924,-695.3518 160.924,-717.3518 272.924,-717.3518 272.924,-695.3518 160.924,-695.3518"/>
<text text-anchor="start" x="165.924" y="-704.3518" font-family="Times,serif" text-decoration="underline" font-size="10.00" fill="#000000">addressID</text>
<text text-anchor="start" x="206.457" y="-704.3518" font-family="Times,serif" font-size="10.00" fill="#000000">: UUID</text>
<polygon fill="none" stroke="#000000" points="160.924,-673.3518 160.924,-695.3518 272.924,-695.3518 272.924,-673.3518 160.924,-673.3518"/>
<text text-anchor="start" x="165.924" y="-682.3518" font-family="Times,serif" font-style="italic" text-decoration="underline" font-size="10.00" fill="#000000">userID</text>
<text text-anchor="start" x="193.129" y="-682.3518" font-family="Times,serif" font-size="10.00" fill="#000000">: UUID</text>
<polygon fill="none" stroke="#000000" points="160.924,-651.3518 160.924,-673.3518 272.924,-673.3518 272.924,-651.3518 160.924,-651.3518"/>
<text text-anchor="start" x="165.924" y="-660.3518" font-family="Times,serif" font-style="italic" text-decoration="underline" font-size="10.00" fill="#000000">cityID</text>
<text text-anchor="start" x="191.469" y="-660.3518" font-family="Times,serif" font-size="10.00" fill="#000000">: UUID</text>
<polygon fill="none" stroke="#000000" points="160.924,-629.3518 160.924,-651.3518 272.924,-651.3518 272.924,-629.3518 160.924,-629.3518"/>
<text text-anchor="start" x="165.924" y="-637.3518" font-family="Times,serif" font-size="10.00" fill="#000000">street: STRING</text>
<polygon fill="none" stroke="#000000" points="160.924,-607.3518 160.924,-629.3518 272.924,-629.3518 272.924,-607.3518 160.924,-607.3518"/>
<text text-anchor="start" x="165.6925" y="-615.3518" font-family="Times,serif" font-size="10.00" fill="#000000">currentAddress: STRING</text>
<polygon fill="none" stroke="#000000" points="160.924,-585.3518 160.924,-607.3518 272.924,-607.3518 272.924,-585.3518 160.924,-585.3518"/>
<text text-anchor="start" x="165.924" y="-593.3518" font-family="Times,serif" font-size="10.00" fill="#000000">zipcode: NUMBER</text>
<polygon fill="none" stroke="#000000" points="160.924,-563.3518 160.924,-585.3518 272.924,-585.3518 272.924,-563.3518 160.924,-563.3518"/>
<text text-anchor="start" x="165.924" y="-571.3518" font-family="Times,serif" font-size="10.00" fill="#000000">createdAt: DATE</text>
<polygon fill="none" stroke="#000000" points="160.924,-541.3518 160.924,-563.3518 272.924,-563.3518 272.924,-541.3518 160.924,-541.3518"/>
<text text-anchor="start" x="165.924" y="-549.3518" font-family="Times,serif" font-size="10.00" fill="#000000">updatedAt: DATE</text>
</g>
<!-- Address&#45;&gt;User -->
<g id="edge1" class="edge">
<title>Address&#45;&gt;User</title>
<path fill="none" stroke="#000000" stroke-width=".75" d="M216.924,-534.9316C216.924,-435.1261 216.924,-287.634 216.924,-198.3003"/>
<polygon fill="#000000" stroke="#000000" stroke-width=".75" points="216.9241,-535.1368 214.224,-541.1368 216.924,-538.1368 216.924,-541.1368 216.924,-541.1368 216.924,-541.1368 216.924,-538.1368 219.624,-541.1369 216.9241,-535.1368 216.9241,-535.1368"/>
</g>
<!-- City -->
<g id="node3" class="node">
<title>City</title>
<polygon fill="#add8e6" stroke="transparent" points="470.7719,-684.3518 470.7719,-706.3518 563.7719,-706.3518 563.7719,-684.3518 470.7719,-684.3518"/>
<polygon fill="none" stroke="#000000" points="470.7719,-684.3518 470.7719,-706.3518 563.7719,-706.3518 563.7719,-684.3518 470.7719,-684.3518"/>
<text text-anchor="start" x="508.6584" y="-693.3518" font-family="Times,serif" font-weight="bold" font-size="10.00" fill="#000000">City</text>
<polygon fill="none" stroke="#000000" points="470.7719,-662.3518 470.7719,-684.3518 563.7719,-684.3518 563.7719,-662.3518 470.7719,-662.3518"/>
<text text-anchor="start" x="475.7719" y="-671.3518" font-family="Times,serif" text-decoration="underline" font-size="10.00" fill="#000000">cityID</text>
<text text-anchor="start" x="501.3169" y="-671.3518" font-family="Times,serif" font-size="10.00" fill="#000000">: UUID</text>
<polygon fill="none" stroke="#000000" points="470.7719,-640.3518 470.7719,-662.3518 563.7719,-662.3518 563.7719,-640.3518 470.7719,-640.3518"/>
<text text-anchor="start" x="475.7719" y="-648.3518" font-family="Times,serif" font-size="10.00" fill="#000000">cityName: STRING</text>
<polygon fill="none" stroke="#000000" points="470.7719,-618.3518 470.7719,-640.3518 563.7719,-640.3518 563.7719,-618.3518 470.7719,-618.3518"/>
<text text-anchor="start" x="475.4799" y="-626.3518" font-family="Times,serif" font-size="10.00" fill="#000000">stateName: STRING</text>
<polygon fill="none" stroke="#000000" points="470.7719,-596.3518 470.7719,-618.3518 563.7719,-618.3518 563.7719,-596.3518 470.7719,-596.3518"/>
<text text-anchor="start" x="475.7719" y="-604.3518" font-family="Times,serif" font-size="10.00" fill="#000000">createdAt: DATE</text>
<polygon fill="none" stroke="#000000" points="470.7719,-574.3518 470.7719,-596.3518 563.7719,-596.3518 563.7719,-574.3518 470.7719,-574.3518"/>
<text text-anchor="start" x="475.7719" y="-582.3518" font-family="Times,serif" font-size="10.00" fill="#000000">updatedAt: DATE</text>
</g>
<!-- City&#45;&gt;Address -->
<g id="edge2" class="edge">
<title>City&#45;&gt;Address</title>
<path fill="none" stroke="#000000" stroke-width=".75" d="M464.1887,-640.3518C410.6124,-640.3518 327.8223,-640.3518 273.0128,-640.3518"/>
<polygon fill="#000000" stroke="#000000" stroke-width=".75" points="464.2496,-640.3519 470.2497,-643.0518 467.2496,-640.3519 470.2496,-640.3518 470.2496,-640.3518 470.2496,-640.3518 467.2496,-640.3519 470.2496,-637.6518 464.2496,-640.3519 464.2496,-640.3519"/>
</g>
<!-- Order -->
<g id="node4" class="node">
<title>Order</title>
<polygon fill="#add8e6" stroke="transparent" points="468.7719,-220 468.7719,-242 564.7719,-242 564.7719,-220 468.7719,-220"/>
<polygon fill="none" stroke="#000000" points="468.7719,-220 468.7719,-242 564.7719,-242 564.7719,-220 468.7719,-220"/>
<text text-anchor="start" x="505.1139" y="-229" font-family="Times,serif" font-weight="bold" font-size="10.00" fill="#000000">Order</text>
<polygon fill="none" stroke="#000000" points="468.7719,-198 468.7719,-220 564.7719,-220 564.7719,-198 468.7719,-198"/>
<text text-anchor="start" x="473.7719" y="-207" font-family="Times,serif" text-decoration="underline" font-size="10.00" fill="#000000">orderID</text>
<text text-anchor="start" x="505.4169" y="-207" font-family="Times,serif" font-size="10.00" fill="#000000">: UUID</text>
<polygon fill="none" stroke="#000000" points="468.7719,-176 468.7719,-198 564.7719,-198 564.7719,-176 468.7719,-176"/>
<text text-anchor="start" x="473.3094" y="-184" font-family="Times,serif" font-size="10.00" fill="#000000">orderStatus: STRING</text>
<polygon fill="none" stroke="#000000" points="468.7719,-154 468.7719,-176 564.7719,-176 564.7719,-154 468.7719,-154"/>
<text text-anchor="start" x="473.7719" y="-162" font-family="Times,serif" font-size="10.00" fill="#000000">orderTime: TIME</text>
<polygon fill="none" stroke="#000000" points="468.7719,-132 468.7719,-154 564.7719,-154 564.7719,-132 468.7719,-132"/>
<text text-anchor="start" x="473.7719" y="-140" font-family="Times,serif" font-size="10.00" fill="#000000">deliveryTime: TIME</text>
<polygon fill="none" stroke="#000000" points="468.7719,-110 468.7719,-132 564.7719,-132 564.7719,-110 468.7719,-110"/>
<text text-anchor="start" x="473.5849" y="-118" font-family="Times,serif" font-size="10.00" fill="#000000">totalPrice: NUMBER</text>
<polygon fill="none" stroke="#000000" points="468.7719,-88 468.7719,-110 564.7719,-110 564.7719,-88 468.7719,-88"/>
<text text-anchor="start" x="473.7719" y="-97" font-family="Times,serif" font-style="italic" text-decoration="underline" font-size="10.00" fill="#000000">userID</text>
<text text-anchor="start" x="500.9769" y="-97" font-family="Times,serif" font-size="10.00" fill="#000000">: UUID</text>
<polygon fill="none" stroke="#000000" points="468.7719,-66 468.7719,-88 564.7719,-88 564.7719,-66 468.7719,-66"/>
<text text-anchor="start" x="473.7719" y="-75" font-family="Times,serif" font-style="italic" text-decoration="underline" font-size="10.00" fill="#000000">restrauntID</text>
<text text-anchor="start" x="519.3029" y="-75" font-family="Times,serif" font-size="10.00" fill="#000000">: UUID</text>
<polygon fill="none" stroke="#000000" points="468.7719,-44 468.7719,-66 564.7719,-66 564.7719,-44 468.7719,-44"/>
<text text-anchor="start" x="473.7719" y="-53" font-family="Times,serif" font-style="italic" text-decoration="underline" font-size="10.00" fill="#000000">addressID</text>
<text text-anchor="start" x="514.3049" y="-53" font-family="Times,serif" font-size="10.00" fill="#000000">: UUID</text>
<polygon fill="none" stroke="#000000" points="468.7719,-22 468.7719,-44 564.7719,-44 564.7719,-22 468.7719,-22"/>
<text text-anchor="start" x="473.7719" y="-30" font-family="Times,serif" font-size="10.00" fill="#000000">createdAt: DATE</text>
<polygon fill="none" stroke="#000000" points="468.7719,0 468.7719,-22 564.7719,-22 564.7719,0 468.7719,0"/>
<text text-anchor="start" x="473.7719" y="-8" font-family="Times,serif" font-size="10.00" fill="#000000">updatedAt: DATE</text>
</g>
<!-- Order&#45;&gt;User -->
<g id="edge3" class="edge">
<title>Order&#45;&gt;User</title>
<path fill="none" stroke="#000000" stroke-width=".75" d="M462.328,-121C403.7402,-121 311.8364,-121 258.6929,-121"/>
<polygon fill="#000000" stroke="#000000" stroke-width=".75" points="462.5961,-121.0001 468.5962,-123.7 465.5961,-121 468.5961,-121 468.5961,-121 468.5961,-121 465.5961,-121 468.5961,-118.3 462.5961,-121.0001 462.5961,-121.0001"/>
</g>
<!-- Restraunt -->
<g id="node5" class="node">
<title>Restraunt</title>
<polygon fill="#add8e6" stroke="transparent" points="624.6958,-446.6759 624.6958,-468.6759 709.6958,-468.6759 709.6958,-446.6759 624.6958,-446.6759"/>
<polygon fill="none" stroke="#000000" points="624.6958,-446.6759 624.6958,-468.6759 709.6958,-468.6759 709.6958,-446.6759 624.6958,-446.6759"/>
<text text-anchor="start" x="648.0343" y="-455.6759" font-family="Times,serif" font-weight="bold" font-size="10.00" fill="#000000">Restraunt</text>
<polygon fill="none" stroke="#000000" points="624.6958,-424.6759 624.6958,-446.6759 709.6958,-446.6759 709.6958,-424.6759 624.6958,-424.6759"/>
<text text-anchor="start" x="629.2978" y="-433.6759" font-family="Times,serif" text-decoration="underline" font-size="10.00" fill="#000000">restrauntID</text>
<text text-anchor="start" x="674.8288" y="-433.6759" font-family="Times,serif" font-size="10.00" fill="#000000">: UUID</text>
<polygon fill="none" stroke="#000000" points="624.6958,-402.6759 624.6958,-424.6759 709.6958,-424.6759 709.6958,-402.6759 624.6958,-402.6759"/>
<text text-anchor="start" x="629.6958" y="-410.6759" font-family="Times,serif" font-size="10.00" fill="#000000">zipcode: STRING</text>
<polygon fill="none" stroke="#000000" points="624.6958,-380.6759 624.6958,-402.6759 709.6958,-402.6759 709.6958,-380.6759 624.6958,-380.6759"/>
<text text-anchor="start" x="629.6958" y="-388.6759" font-family="Times,serif" font-size="10.00" fill="#000000">address: STRING</text>
<polygon fill="none" stroke="#000000" points="624.6958,-358.6759 624.6958,-380.6759 709.6958,-380.6759 709.6958,-358.6759 624.6958,-358.6759"/>
<text text-anchor="start" x="629.6958" y="-366.6759" font-family="Times,serif" font-size="10.00" fill="#000000">rating: NUMBER</text>
<polygon fill="none" stroke="#000000" points="624.6958,-336.6759 624.6958,-358.6759 709.6958,-358.6759 709.6958,-336.6759 624.6958,-336.6759"/>
<text text-anchor="start" x="629.6958" y="-344.6759" font-family="Times,serif" font-size="10.00" fill="#000000">createdAt: DATE</text>
<polygon fill="none" stroke="#000000" points="624.6958,-314.6759 624.6958,-336.6759 709.6958,-336.6759 709.6958,-314.6759 624.6958,-314.6759"/>
<text text-anchor="start" x="629.6958" y="-322.6759" font-family="Times,serif" font-size="10.00" fill="#000000">updatedAt: DATE</text>
<polygon fill="none" stroke="#000000" points="624.6958,-292.6759 624.6958,-314.6759 709.6958,-314.6759 709.6958,-292.6759 624.6958,-292.6759"/>
<text text-anchor="start" x="629.6958" y="-301.6759" font-family="Times,serif" font-style="italic" text-decoration="underline" font-size="10.00" fill="#000000">cityID</text>
<text text-anchor="start" x="655.2408" y="-301.6759" font-family="Times,serif" font-size="10.00" fill="#000000">: UUID</text>
</g>
<!-- Order&#45;&gt;Restraunt -->
<g id="edge4" class="edge">
<title>Order&#45;&gt;Restraunt</title>
<path fill="none" stroke="#000000" stroke-width=".75" d="M567.9698,-209.6774C586.2027,-241.2577 606.5276,-276.4615 623.9742,-306.6799"/>
<polygon fill="#000000" stroke="#000000" stroke-width=".75" points="567.8274,-209.4307 567.1656,-202.8845 566.3274,-206.8327 564.8274,-204.2346 564.8274,-204.2346 564.8274,-204.2346 566.3274,-206.8327 562.4891,-205.5846 567.8274,-209.4307 567.8274,-209.4307"/>
</g>
<!-- Restraunt&#45;&gt;City -->
<g id="edge5" class="edge">
<title>Restraunt&#45;&gt;City</title>
<path fill="none" stroke="#000000" stroke-width=".75" d="M621.0503,-459.7362C599.958,-496.2692 575.1899,-539.1688 555.0861,-573.9897"/>
<polygon fill="#000000" stroke="#000000" stroke-width=".75" points="621.1346,-459.5902 626.4729,-455.744 622.6346,-456.9921 624.1347,-454.394 624.1347,-454.394 624.1347,-454.394 622.6346,-456.9921 621.7964,-453.044 621.1346,-459.5902 621.1346,-459.5902"/>
</g>
<!-- ItemsOrdered -->
<g id="node6" class="node">
<title>ItemsOrdered</title>
<polygon fill="#add8e6" stroke="transparent" points="978.6055,-313.8333 978.6055,-335.8333 1083.6055,-335.8333 1083.6055,-313.8333 978.6055,-313.8333"/>
<polygon fill="none" stroke="#000000" points="978.6055,-313.8333 978.6055,-335.8333 1083.6055,-335.8333 1083.6055,-313.8333 978.6055,-313.8333"/>
<text text-anchor="start" x="1003.6205" y="-322.8333" font-family="Times,serif" font-weight="bold" font-size="10.00" fill="#000000">ItemsOrdered</text>
<polygon fill="none" stroke="#000000" points="978.6055,-291.8333 978.6055,-313.8333 1083.6055,-313.8333 1083.6055,-291.8333 978.6055,-291.8333"/>
<text text-anchor="start" x="983.489" y="-300.8333" font-family="Times,serif" text-decoration="underline" font-size="10.00" fill="#000000">itemsOrderedID</text>
<text text-anchor="start" x="1048.457" y="-300.8333" font-family="Times,serif" font-size="10.00" fill="#000000">: UUID</text>
<polygon fill="none" stroke="#000000" points="978.6055,-269.8333 978.6055,-291.8333 1083.6055,-291.8333 1083.6055,-269.8333 978.6055,-269.8333"/>
<text text-anchor="start" x="983.6055" y="-278.8333" font-family="Times,serif" font-style="italic" text-decoration="underline" font-size="10.00" fill="#000000">menuID</text>
<text text-anchor="start" x="1016.3715" y="-278.8333" font-family="Times,serif" font-size="10.00" fill="#000000">: UUID</text>
<polygon fill="none" stroke="#000000" points="978.6055,-247.8333 978.6055,-269.8333 1083.6055,-269.8333 1083.6055,-247.8333 978.6055,-247.8333"/>
<text text-anchor="start" x="983.6055" y="-255.8333" font-family="Times,serif" font-size="10.00" fill="#000000">price: NUMBER</text>
<polygon fill="none" stroke="#000000" points="978.6055,-225.8333 978.6055,-247.8333 1083.6055,-247.8333 1083.6055,-225.8333 978.6055,-225.8333"/>
<text text-anchor="start" x="983.6055" y="-233.8333" font-family="Times,serif" font-size="10.00" fill="#000000">quantity: NUMBER</text>
<polygon fill="none" stroke="#000000" points="978.6055,-203.8333 978.6055,-225.8333 1083.6055,-225.8333 1083.6055,-203.8333 978.6055,-203.8333"/>
<text text-anchor="start" x="983.6055" y="-211.8333" font-family="Times,serif" font-size="10.00" fill="#000000">createdAt: DATE</text>
<polygon fill="none" stroke="#000000" points="978.6055,-181.8333 978.6055,-203.8333 1083.6055,-203.8333 1083.6055,-181.8333 978.6055,-181.8333"/>
<text text-anchor="start" x="983.6055" y="-189.8333" font-family="Times,serif" font-size="10.00" fill="#000000">updatedAt: DATE</text>
</g>
<!-- Menu -->
<g id="node7" class="node">
<title>Menu</title>
<polygon fill="#add8e6" stroke="transparent" points="761.3195,-354.6372 761.3195,-376.6372 856.3195,-376.6372 856.3195,-354.6372 761.3195,-354.6372"/>
<polygon fill="none" stroke="#000000" points="761.3195,-354.6372 761.3195,-376.6372 856.3195,-376.6372 856.3195,-354.6372 761.3195,-354.6372"/>
<text text-anchor="start" x="797.1555" y="-363.6372" font-family="Times,serif" font-weight="bold" font-size="10.00" fill="#000000">Menu</text>
<polygon fill="none" stroke="#000000" points="761.3195,-332.6372 761.3195,-354.6372 856.3195,-354.6372 856.3195,-332.6372 761.3195,-332.6372"/>
<text text-anchor="start" x="766.3195" y="-341.6372" font-family="Times,serif" text-decoration="underline" font-size="10.00" fill="#000000">menuID</text>
<text text-anchor="start" x="799.0855" y="-341.6372" font-family="Times,serif" font-size="10.00" fill="#000000">: UUID</text>
<polygon fill="none" stroke="#000000" points="761.3195,-310.6372 761.3195,-332.6372 856.3195,-332.6372 856.3195,-310.6372 761.3195,-310.6372"/>
<text text-anchor="start" x="765.9115" y="-318.6372" font-family="Times,serif" font-size="10.00" fill="#000000">description: STRING</text>
<polygon fill="none" stroke="#000000" points="761.3195,-288.6372 761.3195,-310.6372 856.3195,-310.6372 856.3195,-288.6372 761.3195,-288.6372"/>
<text text-anchor="start" x="766.3195" y="-297.6372" font-family="Times,serif" font-style="italic" text-decoration="underline" font-size="10.00" fill="#000000">restrauntID</text>
<text text-anchor="start" x="811.8505" y="-297.6372" font-family="Times,serif" font-size="10.00" fill="#000000">: UUID</text>
<polygon fill="none" stroke="#000000" points="761.3195,-266.6372 761.3195,-288.6372 856.3195,-288.6372 856.3195,-266.6372 761.3195,-266.6372"/>
<text text-anchor="start" x="766.3195" y="-274.6372" font-family="Times,serif" font-size="10.00" fill="#000000">price: NUMBER</text>
<polygon fill="none" stroke="#000000" points="761.3195,-244.6372 761.3195,-266.6372 856.3195,-266.6372 856.3195,-244.6372 761.3195,-244.6372"/>
<text text-anchor="start" x="766.3195" y="-252.6372" font-family="Times,serif" font-size="10.00" fill="#000000">createdAt: DATE</text>
<polygon fill="none" stroke="#000000" points="761.3195,-222.6372 761.3195,-244.6372 856.3195,-244.6372 856.3195,-222.6372 761.3195,-222.6372"/>
<text text-anchor="start" x="766.3195" y="-230.6372" font-family="Times,serif" font-size="10.00" fill="#000000">updatedAt: DATE</text>
</g>
<!-- ItemsOrdered&#45;&gt;Menu -->
<g id="edge6" class="edge">
<title>ItemsOrdered&#45;&gt;Menu</title>
<path fill="none" stroke="#000000" stroke-width=".75" d="M971.7565,-269.6359C935.6274,-276.268 889.9493,-284.6529 856.0737,-290.8712"/>
<polygon fill="#000000" stroke="#000000" stroke-width=".75" points="972.0254,-269.5866 978.4143,-271.1589 974.9761,-269.045 977.9268,-268.5033 977.9268,-268.5033 977.9268,-268.5033 974.9761,-269.045 977.4393,-265.8477 972.0254,-269.5866 972.0254,-269.5866"/>
</g>
<!-- Menu&#45;&gt;Restraunt -->
<g id="edge7" class="edge">
<title>Menu&#45;&gt;Restraunt</title>
<path fill="none" stroke="#000000" stroke-width=".75" d="M755.2723,-329.9915C740.2024,-338.6146 723.9849,-347.8944 709.5975,-356.1271"/>
<polygon fill="#000000" stroke="#000000" stroke-width=".75" points="755.5592,-329.8273 762.1079,-329.1908 758.163,-328.3373 760.7669,-326.8474 760.7669,-326.8474 760.7669,-326.8474 758.163,-328.3373 759.4259,-324.5039 755.5592,-329.8273 755.5592,-329.8273"/>
</g>
<!-- FoodCategory -->
<g id="node8" class="node">
<title>FoodCategory</title>
<polygon fill="#add8e6" stroke="transparent" points="830.8518,-644.6305 830.8518,-666.6305 936.8518,-666.6305 936.8518,-644.6305 830.8518,-644.6305"/>
<polygon fill="none" stroke="#000000" points="830.8518,-644.6305 830.8518,-666.6305 936.8518,-666.6305 936.8518,-644.6305 830.8518,-644.6305"/>
<text text-anchor="start" x="855.2448" y="-653.6305" font-family="Times,serif" font-weight="bold" font-size="10.00" fill="#000000">FoodCategory</text>
<polygon fill="none" stroke="#000000" points="830.8518,-622.6305 830.8518,-644.6305 936.8518,-644.6305 936.8518,-622.6305 830.8518,-622.6305"/>
<text text-anchor="start" x="835.8518" y="-631.6305" font-family="Times,serif" text-decoration="underline" font-size="10.00" fill="#000000">foodCategoryID</text>
<text text-anchor="start" x="901.3838" y="-631.6305" font-family="Times,serif" font-size="10.00" fill="#000000">: UUID</text>
<polygon fill="none" stroke="#000000" points="830.8518,-600.6305 830.8518,-622.6305 936.8518,-622.6305 936.8518,-600.6305 830.8518,-600.6305"/>
<text text-anchor="start" x="835.6683" y="-608.6305" font-family="Times,serif" font-size="10.00" fill="#000000">foodCategory: STRING</text>
<polygon fill="none" stroke="#000000" points="830.8518,-578.6305 830.8518,-600.6305 936.8518,-600.6305 936.8518,-578.6305 830.8518,-578.6305"/>
<text text-anchor="start" x="835.8518" y="-586.6305" font-family="Times,serif" font-size="10.00" fill="#000000">createdAt: DATE</text>
<polygon fill="none" stroke="#000000" points="830.8518,-556.6305 830.8518,-578.6305 936.8518,-578.6305 936.8518,-556.6305 830.8518,-556.6305"/>
<text text-anchor="start" x="835.8518" y="-564.6305" font-family="Times,serif" font-size="10.00" fill="#000000">updatedAt: DATE</text>
<polygon fill="none" stroke="#000000" points="830.8518,-534.6305 830.8518,-556.6305 936.8518,-556.6305 936.8518,-534.6305 830.8518,-534.6305"/>
<text text-anchor="start" x="835.8518" y="-543.6305" font-family="Times,serif" font-style="italic" text-decoration="underline" font-size="10.00" fill="#000000">restrauntID</text>
<text text-anchor="start" x="881.3828" y="-543.6305" font-family="Times,serif" font-size="10.00" fill="#000000">: UUID</text>
</g>
<!-- FoodCategory&#45;&gt;Restraunt -->
<g id="edge8" class="edge">
<title>FoodCategory&#45;&gt;Restraunt</title>
<path fill="none" stroke="#000000" stroke-width=".75" d="M826.3062,-542.3433C789.6135,-505.1777 742.8559,-457.8175 709.45,-423.9811"/>
<polygon fill="#000000" stroke="#000000" stroke-width=".75" points="826.5141,-542.5538 828.8081,-548.7205 828.6218,-544.6887 830.7295,-546.8236 830.7295,-546.8236 830.7295,-546.8236 828.6218,-544.6887 832.6509,-544.9267 826.5141,-542.5538 826.5141,-542.5538"/>
</g>
<!-- Payment -->
<g id="node9" class="node">
<title>Payment</title>
<polygon fill="#add8e6" stroke="transparent" points="0,-446.6759 0,-468.6759 134,-468.6759 134,-446.6759 0,-446.6759"/>
<polygon fill="none" stroke="#000000" points="0,-446.6759 0,-468.6759 134,-468.6759 134,-446.6759 0,-446.6759"/>
<text text-anchor="start" x="49.5025" y="-455.6759" font-family="Times,serif" font-weight="bold" font-size="10.00" fill="#000000">Payment</text>
<polygon fill="none" stroke="#000000" points="0,-424.6759 0,-446.6759 134,-446.6759 134,-424.6759 0,-424.6759"/>
<text text-anchor="start" x="5" y="-433.6759" font-family="Times,serif" text-decoration="underline" font-size="10.00" fill="#000000">paymentID</text>
<text text-anchor="start" x="49.984" y="-433.6759" font-family="Times,serif" font-size="10.00" fill="#000000">: UUID</text>
<polygon fill="none" stroke="#000000" points="0,-402.6759 0,-424.6759 134,-424.6759 134,-402.6759 0,-402.6759"/>
<text text-anchor="start" x="5" y="-410.6759" font-family="Times,serif" font-size="10.00" fill="#000000">paymentStatus: STRING</text>
<polygon fill="none" stroke="#000000" points="0,-380.6759 0,-402.6759 134,-402.6759 134,-380.6759 0,-380.6759"/>
<text text-anchor="start" x="4.648" y="-388.6759" font-family="Times,serif" font-size="10.00" fill="#000000">amountToBePayed: NUMBER</text>
<polygon fill="none" stroke="#000000" points="0,-358.6759 0,-380.6759 134,-380.6759 134,-358.6759 0,-358.6759"/>
<text text-anchor="start" x="5" y="-367.6759" font-family="Times,serif" font-style="italic" text-decoration="underline" font-size="10.00" fill="#000000">userID</text>
<text text-anchor="start" x="32.205" y="-367.6759" font-family="Times,serif" font-size="10.00" fill="#000000">: UUID</text>
<polygon fill="none" stroke="#000000" points="0,-336.6759 0,-358.6759 134,-358.6759 134,-336.6759 0,-336.6759"/>
<text text-anchor="start" x="5" y="-345.6759" font-family="Times,serif" font-style="italic" text-decoration="underline" font-size="10.00" fill="#000000">orderID</text>
<text text-anchor="start" x="36.645" y="-345.6759" font-family="Times,serif" font-size="10.00" fill="#000000">: UUID</text>
<polygon fill="none" stroke="#000000" points="0,-314.6759 0,-336.6759 134,-336.6759 134,-314.6759 0,-314.6759"/>
<text text-anchor="start" x="5" y="-322.6759" font-family="Times,serif" font-size="10.00" fill="#000000">createdAt: DATE</text>
<polygon fill="none" stroke="#000000" points="0,-292.6759 0,-314.6759 134,-314.6759 134,-292.6759 0,-292.6759"/>
<text text-anchor="start" x="5" y="-300.6759" font-family="Times,serif" font-size="10.00" fill="#000000">updatedAt: DATE</text>
</g>
<!-- Payment&#45;&gt;User -->
<g id="edge9" class="edge">
<title>Payment&#45;&gt;User</title>
<path fill="none" stroke="#000000" stroke-width=".75" d="M121.0496,-287.0592C138.9184,-256.1095 158.5104,-222.1752 175.3002,-193.0944"/>
<polygon fill="#000000" stroke="#000000" stroke-width=".75" points="120.9667,-287.203 115.6283,-291.0491 119.4666,-289.8011 117.9666,-292.3991 117.9666,-292.3991 117.9666,-292.3991 119.4666,-289.8011 120.3049,-293.7492 120.9667,-287.203 120.9667,-287.203"/>
</g>
<!-- Payment&#45;&gt;Order -->
<g id="edge10" class="edge">
<title>Payment&#45;&gt;Order</title>
<path fill="none" stroke="#000000" stroke-width=".75" d="M139.7922,-338.6493C232.4127,-285.1749 389.8085,-194.3023 468.6975,-148.7557"/>
<polygon fill="#000000" stroke="#000000" stroke-width=".75" points="139.5316,-338.7998 132.9854,-339.4615 136.9335,-340.2998 134.3354,-341.7998 134.3354,-341.7998 134.3354,-341.7998 136.9335,-340.2998 135.6854,-344.1381 139.5316,-338.7998 139.5316,-338.7998"/>
</g>
</g>
</svg>
